<svg width="91" height="100" xmlns="http://www.w3.org/2000/svg">
 <!-- Created with Method Draw - http://github.com/duopixel/Method-Draw/ -->
 <g>
  <title>background</title>
  <rect fill="none" id="canvas_background" height="102" width="93" y="-1" x="-1"/>
  <g display="none" overflow="visible" y="0" x="0" height="100%" width="100%" id="canvasGrid">
   <rect fill="url(#gridpattern)" stroke-width="0" y="0" x="0" height="100%" width="100%"/>
  </g>
 </g>
 <g>
  <title>Layer 1</title>
  <path stroke="#ffffff" id="svg_1" d="m45.589553,6.561762c-24.025506,0 -43.499991,19.475633 -43.499991,43.500008c0,24.025609 19.474485,43.499987 43.499991,43.499987c24.024382,0 43.500005,-19.474378 43.500005,-43.499987c0,-24.024375 -19.47562,-43.500008 -43.500005,-43.500008zm3.974432,68.554246l-8.101811,0l0,-7.769471l8.101811,0l0,7.769471zm0,-16.065319l0,2.567748l-8.101811,0l0,-3.163805c0,-9.547132 10.864701,-11.06217 10.864701,-17.84765c0,-3.094043 -2.766387,-5.464164 -6.388011,-5.464164c-3.752874,0 -7.044455,2.765214 -7.044455,2.765214l-4.612595,-5.731542c0,0 4.546396,-4.741558 12.382039,-4.741558c7.44307,0 14.353944,4.609153 14.353944,12.379762c0.003473,10.87045 -11.453811,12.124068 -11.453811,19.235991l0,0.000003z" stroke-width="1.5" fill="#007f7f"/>
 </g>
</svg>