<svg width="100" height="99" xmlns="http://www.w3.org/2000/svg">
 <!-- Created with Method Draw - http://github.com/duopixel/Method-Draw/ -->
 <g>
  <title>background</title>
  <rect fill="#fff" id="canvas_background" height="101" width="102" y="-1" x="-1"/>
  <g display="none" overflow="visible" y="0" x="0" height="100%" width="100%" id="canvasGrid">
   <rect fill="url(#gridpattern)" stroke-width="0" y="0" x="0" height="100%" width="100%"/>
  </g>
 </g>
 <g>
  <title>Layer 1</title>
  <ellipse ry="47" rx="47" id="svg_1" cy="49.5" cx="50.5" stroke-width="1.5" fill="#aaaaff"/>
  <path stroke="null" id="svg_4" d="m74.863107,37.40721c0.053606,-0.556892 0.084641,-1.119495 0.084641,-1.68781c0,-9.85841 -7.894179,-17.849092 -17.633532,-17.849092c-7.558437,0 -13.988328,4.823539 -16.496522,11.591914c-1.661784,-1.844882 -4.031731,-3.02435 -6.692278,-3.02435c-5.016387,0 -9.081974,4.115287 -9.081974,9.192996c0,0.599729 0.064891,1.18518 0.174925,1.750639c-6.692278,1.116639 -11.813056,6.956862 -11.813056,14.045093c0,7.887871 6.317036,14.279274 14.106825,14.279274l6.522996,0c-0.355492,-0.759657 -0.564273,-1.587855 -0.564273,-2.453179c0,-1.527882 0.586844,-2.970089 1.656141,-4.041034l12.202404,-12.362995c1.058012,-1.076657 2.474337,-1.670675 3.986589,-1.670675c1.523537,0 2.939862,0.599729 3.997874,1.676387l12.196761,12.362995c1.063655,1.065234 1.650499,2.50744 1.650499,4.035323c0,0.86818 -0.20596,1.696378 -0.564273,2.453179l3.701631,0c7.79261,0 14.106825,-6.391403 14.106825,-14.279274c0.005643,-6.9997 -4.976888,-12.797085 -11.542205,-14.019391zm-21.552408,11.457689c-0.544523,-0.556892 -1.269614,-0.831054 -1.991884,-0.831054s-1.444539,0.274162 -1.994705,0.831054l-12.208047,12.365851c-1.100332,1.110927 -1.097511,2.927251 0.002821,4.038179l1.568679,1.584999c1.100332,1.110927 2.719796,1.282279 3.600062,0.391252s1.602535,-0.339847 1.602535,1.233729l0,3.535548c0,1.567864 1.272436,2.855855 2.821365,2.855855l9.211757,0c1.554572,0 2.821365,-1.28799 2.821365,-2.855855l0,-3.535548c0,-1.573576 0.722269,-2.124756 1.605357,-1.233729c0.880266,0.891027 2.502551,0.719675 3.600062,-0.391252l1.568679,-1.584999c1.100332,-1.110927 1.100332,-2.927251 0.002821,-4.038179l-12.210868,-12.365851z" stroke-opacity="null" stroke-width="1.5" fill="#ffffff"/>
 </g>
</svg>